<svg width="900" height="1125" viewBox="0 0 900 1125" fill="none" xmlns="http://www.w3.org/2000/svg" role="img" aria-labelledby="title desc">
  <title id="title">Connected cultural routes</title>
  <desc id="desc">An abstract editorial map of routes, gatherings, and stages.</desc>
  <rect width="900" height="1125" fill="#FFFDF8"/>
  <path d="M0 0H900V1125H0V0Z" fill="#F7F4EE"/>
  <path d="M82 165C198 108 302 91 419 130C560 177 625 285 778 250" stroke="#226E73" stroke-width="4"/>
  <path d="M88 808C218 662 354 612 492 656C626 699 683 827 815 774" stroke="#A24F35" stroke-width="4"/>
  <path d="M124 502C236 405 337 362 467 400C608 441 659 544 782 512" stroke="#777B3B" stroke-width="3"/>
  <path d="M160 968C288 931 371 826 508 861C631 893 699 974 807 922" stroke="#553C56" stroke-width="3"/>
  <path d="M187 225L334 456L211 703L433 905L704 760L664 420L471 223L187 225Z" stroke="#161616" stroke-opacity=".55" stroke-width="2"/>
  <path d="M293 173L612 308L727 613L569 934L250 826L159 533L293 173Z" stroke="#161616" stroke-opacity=".18" stroke-width="2"/>
  <g stroke="#161616" stroke-opacity=".16">
    <path d="M75 90H825"/>
    <path d="M75 180H825"/>
    <path d="M75 270H825"/>
    <path d="M75 360H825"/>
    <path d="M75 450H825"/>
    <path d="M75 540H825"/>
    <path d="M75 630H825"/>
    <path d="M75 720H825"/>
    <path d="M75 810H825"/>
    <path d="M75 900H825"/>
    <path d="M75 990H825"/>
    <path d="M150 62V1063"/>
    <path d="M300 62V1063"/>
    <path d="M450 62V1063"/>
    <path d="M600 62V1063"/>
    <path d="M750 62V1063"/>
  </g>
  <g fill="#161616">
    <circle cx="187" cy="225" r="9"/>
    <circle cx="334" cy="456" r="9"/>
    <circle cx="211" cy="703" r="9"/>
    <circle cx="433" cy="905" r="9"/>
    <circle cx="704" cy="760" r="9"/>
    <circle cx="664" cy="420" r="9"/>
    <circle cx="471" cy="223" r="9"/>
  </g>
  <g fill="#FFFDF8" stroke="#161616" stroke-width="2">
    <circle cx="293" cy="173" r="22"/>
    <circle cx="612" cy="308" r="22"/>
    <circle cx="727" cy="613" r="22"/>
    <circle cx="569" cy="934" r="22"/>
    <circle cx="250" cy="826" r="22"/>
    <circle cx="159" cy="533" r="22"/>
  </g>
  <g font-family="Arial, Helvetica, sans-serif" font-size="26" fill="#161616">
    <text x="101" y="91">IR</text>
    <text x="776" y="181">FR</text>
    <text x="91" y="1000">AU</text>
    <text x="739" y="1001">EU</text>
  </g>
  <g stroke="#161616" stroke-width="1.5">
    <rect x="91" y="67" width="72" height="38" fill="#F7F4EE"/>
    <rect x="741" y="157" width="72" height="38" fill="#F7F4EE"/>
    <rect x="91" y="976" width="72" height="38" fill="#F7F4EE"/>
    <rect x="741" y="976" width="72" height="38" fill="#F7F4EE"/>
  </g>
  <path d="M75 63H825V1063H75V63Z" stroke="#161616" stroke-width="3"/>
</svg>
